REM DIRINDEX 1\2,1\3,1\4,1\6,1\5\7,1\5\8
REM DIRNAME cjc114,folder01,folder02,folder03,folder04,folder05,folder06,folder07
TITLE ""
FILE "DB4500_5th_6C_46.mp3" MP3
  TRACK 01 AUDIO
    TITLE "0:"
    INDEX 01 00:00:00
  TRACK 02 AUDIO
    TITLE "2:cjc114_4939"
    INDEX 01 00:00:03
  TRACK 03 AUDIO
    TITLE "0:"
    INDEX 01 00:01:32
  TRACK 04 AUDIO
    TITLE "3:cjc114_4940"
    INDEX 01 00:01:56
  TRACK 05 AUDIO
    TITLE "0:"
    INDEX 01 00:02:67
  TRACK 06 AUDIO
    TITLE "4:cjc114_4941"
    INDEX 01 00:03:14
  TRACK 07 AUDIO
    TITLE "0:"
    INDEX 01 00:06:41
  TRACK 08 AUDIO
    TITLE "2:cjc114_4942"
    INDEX 01 00:07:07
  TRACK 09 AUDIO
    TITLE "0:"
    INDEX 01 00:08:19
  TRACK 10 AUDIO
    TITLE "3:cjc114_4943"
    INDEX 01 00:08:38
  TRACK 11 AUDIO
    TITLE "0:"
    INDEX 01 00:09:57
  TRACK 12 AUDIO
    TITLE "4:cjc114_4944"
    INDEX 01 00:10:02
  TRACK 13 AUDIO
    TITLE "0:"
    INDEX 01 00:13:22
  TRACK 14 AUDIO
    TITLE "2:cjc114_4945"
    INDEX 01 00:13:67
  TRACK 15 AUDIO
    TITLE "0:"
    INDEX 01 00:15:17
  TRACK 16 AUDIO
    TITLE "3:cjc114_4946"
    INDEX 01 00:15:32
  TRACK 17 AUDIO
    TITLE "0:"
    INDEX 01 00:16:55
  TRACK 18 AUDIO
    TITLE "4:cjc114_4947"
    INDEX 01 00:17:02
  TRACK 19 AUDIO
    TITLE "0:"
    INDEX 01 00:21:21
  TRACK 20 AUDIO
    TITLE "2:cjc114_4948"
    INDEX 01 00:21:70
  TRACK 21 AUDIO
    TITLE "0:"
    INDEX 01 00:22:70
  TRACK 22 AUDIO
    TITLE "3:cjc114_4949"
    INDEX 01 00:23:16
  TRACK 23 AUDIO
    TITLE "0:"
    INDEX 01 00:24:45
  TRACK 24 AUDIO
    TITLE "4:cjc114_4950"
    INDEX 01 00:24:67
  TRACK 25 AUDIO
    TITLE "0:"
    INDEX 01 00:27:47
  TRACK 26 AUDIO
    TITLE "2:cjc114_4951"
    INDEX 01 00:28:17
  TRACK 27 AUDIO
    TITLE "0:"
    INDEX 01 00:29:38
  TRACK 28 AUDIO
    TITLE "3:cjc114_4952"
    INDEX 01 00:29:56
  TRACK 29 AUDIO
    TITLE "0:"
    INDEX 01 00:31:08
  TRACK 30 AUDIO
    TITLE "4:cjc114_4953"
    INDEX 01 00:31:31
  TRACK 31 AUDIO
    TITLE "0:"
    INDEX 01 00:34:63
  TRACK 32 AUDIO
    TITLE "2:cjc114_4954"
    INDEX 01 00:35:33
  TRACK 33 AUDIO
    TITLE "0:"
    INDEX 01 00:36:68
  TRACK 34 AUDIO
    TITLE "3:cjc114_4955"
    INDEX 01 00:37:16
  TRACK 35 AUDIO
    TITLE "0:"
    INDEX 01 00:38:35
  TRACK 36 AUDIO
    TITLE "4:cjc114_4956"
    INDEX 01 00:38:57
  TRACK 37 AUDIO
    TITLE "0:"
    INDEX 01 00:41:53
  TRACK 38 AUDIO
    TITLE "2:cjc114_4957"
    INDEX 01 00:42:23
  TRACK 39 AUDIO
    TITLE "0:"
    INDEX 01 00:43:13
  TRACK 40 AUDIO
    TITLE "3:cjc114_4958"
    INDEX 01 00:43:35
  TRACK 41 AUDIO
    TITLE "0:"
    INDEX 01 00:45:71
  TRACK 42 AUDIO
    TITLE "4:cjc114_4959"
    INDEX 01 00:46:21
  TRACK 43 AUDIO
    TITLE "0:"
    INDEX 01 00:50:09
  TRACK 44 AUDIO
    TITLE "2:cjc114_4960"
    INDEX 01 00:50:58
  TRACK 45 AUDIO
    TITLE "0:"
    INDEX 01 00:52:10
  TRACK 46 AUDIO
    TITLE "3:cjc114_4961"
    INDEX 01 00:52:32
  TRACK 47 AUDIO
    TITLE "0:"
    INDEX 01 00:53:47
  TRACK 48 AUDIO
    TITLE "4:cjc114_4962"
    INDEX 01 00:53:70
  TRACK 49 AUDIO
    TITLE "0:"
    INDEX 01 00:57:25
  TRACK 50 AUDIO
    TITLE "2:cjc114_4963"
    INDEX 01 00:57:70
  TRACK 51 AUDIO
    TITLE "0:"
    INDEX 01 00:59:00
  TRACK 52 AUDIO
    TITLE "3:cjc114_4964"
    INDEX 01 00:59:24
  TRACK 53 AUDIO
    TITLE "0:"
    INDEX 01 01:00:57
  TRACK 54 AUDIO
    TITLE "4:cjc114_4965"
    INDEX 01 01:00:72
  TRACK 55 AUDIO
    TITLE "0:"
    INDEX 01 01:04:60
  TRACK 56 AUDIO
    TITLE "2:cjc114_4966"
    INDEX 01 01:05:28
  TRACK 57 AUDIO
    TITLE "0:"
    INDEX 01 01:06:26
  TRACK 58 AUDIO
    TITLE "3:cjc114_4967"
    INDEX 01 01:06:47
  TRACK 59 AUDIO
    TITLE "0:"
    INDEX 01 01:07:72
  TRACK 60 AUDIO
    TITLE "4:cjc114_4968"
    INDEX 01 01:08:21
  TRACK 61 AUDIO
    TITLE "0:"
    INDEX 01 01:14:70
  TRACK 62 AUDIO
    TITLE "2:cjc114_4969"
    INDEX 01 01:15:39
  TRACK 63 AUDIO
    TITLE "0:"
    INDEX 01 01:16:46
  TRACK 64 AUDIO
    TITLE "3:cjc114_4970"
    INDEX 01 01:16:67
  TRACK 65 AUDIO
    TITLE "0:"
    INDEX 01 01:18:25
  TRACK 66 AUDIO
    TITLE "4:cjc114_4971"
    INDEX 01 01:18:47
  TRACK 67 AUDIO
    TITLE "0:"
    INDEX 01 01:21:35
  TRACK 68 AUDIO
    TITLE "2:cjc114_4972"
    INDEX 01 01:22:07
  TRACK 69 AUDIO
    TITLE "0:"
    INDEX 01 01:23:28
  TRACK 70 AUDIO
    TITLE "3:cjc114_4973"
    INDEX 01 01:23:50
  TRACK 71 AUDIO
    TITLE "0:"
    INDEX 01 01:24:69
  TRACK 72 AUDIO
    TITLE "4:cjc114_4974"
    INDEX 01 01:25:13
  TRACK 73 AUDIO
    TITLE "0:"
    INDEX 01 01:28:67
  TRACK 74 AUDIO
    TITLE "2:cjc114_4975"
    INDEX 01 01:29:37
  TRACK 75 AUDIO
    TITLE "0:"
    INDEX 01 01:30:50
  TRACK 76 AUDIO
    TITLE "3:cjc114_4976"
    INDEX 01 01:30:71
  TRACK 77 AUDIO
    TITLE "0:"
    INDEX 01 01:32:19
  TRACK 78 AUDIO
    TITLE "4:cjc114_4977"
    INDEX 01 01:32:39
  TRACK 79 AUDIO
    TITLE "0:"
    INDEX 01 01:36:43
  TRACK 80 AUDIO
    TITLE "2:cjc114_4978"
    INDEX 01 01:37:13
  TRACK 81 AUDIO
    TITLE "0:"
    INDEX 01 01:38:42
  TRACK 82 AUDIO
    TITLE "3:cjc114_4979"
    INDEX 01 01:38:63
  TRACK 83 AUDIO
    TITLE "0:"
    INDEX 01 01:40:58
  TRACK 84 AUDIO
    TITLE "4:cjc114_4980"
    INDEX 01 01:41:05
  TRACK 85 AUDIO
    TITLE "0:"
    INDEX 01 01:44:23
  TRACK 86 AUDIO
    TITLE "2:cjc114_4981"
    INDEX 01 01:44:66
  TRACK 87 AUDIO
    TITLE "0:"
    INDEX 01 01:46:18
  TRACK 88 AUDIO
    TITLE "3:cjc114_4982"
    INDEX 01 01:46:39
  TRACK 89 AUDIO
    TITLE "0:"
    INDEX 01 01:47:56
  TRACK 90 AUDIO
    TITLE "4:cjc114_4983"
    INDEX 01 01:47:74
  TRACK 91 AUDIO
    TITLE "0:"
    INDEX 01 01:53:02
